<svg xmlns="http://www.w3.org/2000/svg" width="49" height="49" viewBox="0 0 49 49" overflow="visible"><path fill-rule="evenodd" clip-rule="evenodd" fill="#161C1E" d="M24.5 0c13.53 0 24.5 10.97 24.5 24.5s-10.97 24.5-24.5 24.5-24.5-10.97-24.5-24.5 10.97-24.5 24.5-24.5z"/><path fill="#D0CFDB" d="M38.01 17.36m-7.39-2.36c-2.72 0-4.93 2.26-4.93 5.05 0 .4.04.78.13 1.15-4.09-.21-7.72-2.22-10.15-5.28-.43.75-.67 1.62-.67 2.54 0 1.75.87 3.3 2.19 4.2-.81-.03-1.57-.25-2.23-.63v.06c0 2.45 1.7 4.49 3.95 4.95-.41.12-.85.18-1.3.18-.32 0-.63-.03-.93-.09.63 2.01 2.45 3.47 4.6 3.51-1.69 1.35-3.81 2.16-6.12 2.16-.4 0-.79-.02-1.17-.07 2.18 1.43 4.77 2.27 7.55 2.27 9.06 0 14.02-7.69 14.02-14.37l-.01-.65c.96-.71 1.8-1.6 2.46-2.61-.88.4-1.83.67-2.83.8 1.02-.62 1.8-1.61 2.17-2.79-.95.58-2.01 1-3.13 1.23-.9-1-2.19-1.61-3.6-1.61"/></svg>