<svg xmlns="http://www.w3.org/2000/svg" width="19" height="19" viewBox="0 0 35 35" overflow="visible" enable-background="new 0 0 35.001 35.001" fill="#6c6e7b"><path d="M17.5 0c-9.7 0-17.5 7.8-17.5 17.5s7.8 17.5 17.5 17.5 17.5-7.8 17.5-17.5-7.8-17.5-17.5-17.5zm7.4 22.9c0 .3-.1.7-.2 1l-1.3 2.7c-.1.2-.4.6-.6.8l-4.2 3.9c-.2.2-.1.3.1.3h.5c.3 0 .5.2.5.4s-.2.4-.5.4h-2c-.3 0-.5-.2-.5-.5v-5.3c0-.3.2-.5.5-.5h.6c.3 0 .5-.2.5-.5v-.6c0-.3-.2-.5-.5-.5h-.6c-.3 0-.5-.2-.5-.5v-3.1c0-.3-.2-.5-.5-.5h-.8c-.3 0-.7-.1-.9-.3l-2.7-1.9-.7-.7-1.2-2.1c-.1-.2-.5-.4-.8-.4h-.6c-.3 0-.6-.2-.7-.5l-1.5-3c-.1-.2-.2-.7-.2-.9v-1.8c0-.3-.2-.4-.5-.4l-.5.2c2.5-3.5 6.6-6 11.1-6.4v2.1c0 .3.2.6.4.8l.9.7c.2.2.6.3.9.3h.7c.3 0 .5.2.5.4s-.2.6-.3.8l-1.1 1.1c-.2.2-.1.4.2.4h.7c.3 0 .5.2.5.5v1.8c0 .3.2.5.5.5h.8c.3 0 .5.2.5.4s-.2.4-.5.4h-2.5c-.3 0-.7.1-.9.3l-1 .8c-.2.2-.4.5-.4.8v3c0 .3-.2.5-.5.5h-.1c-.3 0-.5-.2-.5-.5v-1.7c0-.3-.2-.5-.5-.5h-1.3c-.3 0-.5.2-.5.5v1.4c0 .3.2.6.4.8l2 1.6c.2.2.6.3.9.3h3.3c.3 0 .7.1.9.2l4.2 2.2c.2.1.4.5.4.7l.1.1zm-1.3-15c-.2.2-.6.3-.9.3h-.2c-.3 0-.5-.2-.5-.5v-1.6c0-.3-.2-.5-.5-.5h-.7c-.3 0-.5-.2-.5-.5v-2.6c2.4.4 4.6 1.4 6.5 2.9-.1.1-3.2 2.5-3.2 2.5z"/></svg>