<svg xmlns="http://www.w3.org/2000/svg" xmlns:xlink="http://www.w3.org/1999/xlink" preserveAspectRatio="xMidYMid" width="17.88" height="13.563" viewBox="0 0 17.88 13.563">
  <defs>
    <style>
      .cls-1 {
        fill: #929292;
        fill-rule: evenodd;
      }
    </style>
  </defs>
  <path d="M17.697,4.527 C17.572,4.650 17.410,4.713 17.248,4.713 C17.085,4.713 16.923,4.650 16.799,4.527 C14.699,2.426 11.906,1.270 8.936,1.270 C5.966,1.270 3.173,2.426 1.073,4.527 C0.825,4.775 0.424,4.775 0.176,4.527 C-0.072,4.279 -0.072,3.877 0.176,3.629 C2.515,1.289 5.627,0.001 8.936,0.001 C12.245,0.001 15.357,1.289 17.697,3.629 C17.945,3.877 17.945,4.279 17.697,4.527 ZM14.674,6.228 C14.922,6.476 14.922,6.878 14.674,7.126 C14.550,7.250 14.387,7.312 14.225,7.312 C14.063,7.312 13.900,7.250 13.776,7.126 C11.108,4.457 6.765,4.457 4.095,7.126 C3.847,7.374 3.446,7.374 3.198,7.126 C2.950,6.878 2.950,6.476 3.198,6.228 C6.362,3.065 11.510,3.064 14.674,6.228 ZM12.256,9.069 C12.504,9.317 12.504,9.719 12.256,9.967 C12.132,10.091 11.970,10.153 11.807,10.153 C11.645,10.153 11.482,10.091 11.359,9.967 C10.023,8.632 7.850,8.631 6.513,9.967 C6.265,10.215 5.864,10.215 5.616,9.967 C5.368,9.719 5.368,9.317 5.616,9.069 C7.447,7.239 10.426,7.239 12.256,9.069 ZM8.936,11.219 C9.582,11.219 10.107,11.743 10.107,12.389 C10.107,13.036 9.582,13.561 8.936,13.561 C8.289,13.561 7.765,13.036 7.765,12.389 C7.765,11.743 8.289,11.219 8.936,11.219 Z" class="cls-1"/>
  <image src="/dummy-resources/img/room/icon-wifi.png" xlink:href="">
</svg>