<svg xmlns="http://www.w3.org/2000/svg" width="283.46" height="202.92" viewBox="0 0 283.46 202.92" overflow="visible" enable-background="new 0 0 283.465 202.92"><defs><path d="M0 0h283.46v202.92h-283.46z"/></defs><path clip-path="url(#XMLID_6_)" fill="#fff" d="M55.05 195.48c-4.68 0-8.63-3.77-8.63-8.24v-7.24c0-4.54 3.7-8.24 8.24-8.24s8.24 3.7 8.24 8.24v2.74c0 .94-.8 1.75-1.74 1.78l-11.19 2.17v.56c0 2.5 2.37 4.69 5.08 4.69.99 0 2.83-.21 3.96-1.65.35-.45.91-.74 1.45-.74.97 0 1.82.81 1.82 1.73 0 .36-.12.76-.34 1.08-1.5 1.95-4.07 3.12-6.89 3.12m-.39-20.18c-2.58 0-4.69 2.1-4.69 4.69v2.91l9.38-1.65v-1.26c0-2.58-2.11-4.69-4.69-4.69m28.72 19.78c-.88 0-1.77-.61-1.77-1.77v-13.31c0-2.59-2.1-4.69-4.69-4.69-2.58 0-4.68 2.1-4.68 4.69v13.32c0 1.17-.89 1.77-1.78 1.77-.88 0-1.77-.61-1.77-1.77v-6.04l-.02-.09v-13.04c0-1.16.89-1.77 1.77-1.77.6 0 1.3.31 1.61.99 1.41-1.03 3.12-1.6 4.87-1.6 4.54 0 8.24 3.7 8.24 8.24v13.32c0 1.15-.9 1.75-1.78 1.75m184.08.4c-4.54 0-8.24-3.69-8.24-8.24v-7.24c0-4.54 3.69-8.24 8.24-8.24 1.65 0 3.29.6 4.69 1.7v-8.34c0-1.16.89-1.77 1.78-1.77.86 0 1.77.62 1.77 1.77v28.01c0 1.16-.89 1.77-1.77 1.77-.61 0-1.3-.32-1.61-1-1.41 1.02-3.12 1.58-4.86 1.58m0-20.18c-2.59 0-4.69 2.1-4.69 4.69v7.25c0 2.59 2.1 4.69 4.69 4.69 2.58 0 4.69-2.1 4.69-4.69v-7.24c0-2.59-2.1-4.7-4.69-4.7m-256.55 20.18c-4.54 0-8.24-3.69-8.24-8.24v-7.24c0-4.54 3.7-8.24 8.24-8.24s8.24 3.7 8.24 8.24v7.25c0 4.53-3.7 8.23-8.24 8.23m0-20.18c-2.58 0-4.69 2.1-4.69 4.69v7.25c0 2.59 2.1 4.69 4.69 4.69s4.69-2.1 4.69-4.69v-7.24c0-2.59-2.1-4.7-4.69-4.7m15.51 27.62c-.88 0-1.77-.61-1.77-1.77v-13.83l-.04-.13v-13.04c0-1.16.89-1.77 1.77-1.77.72 0 1.34.4 1.61 1.01 1.41-1.04 3.13-1.61 4.89-1.61 4.54 0 8.24 3.7 8.24 8.24v7.25c0 4.54-3.7 8.24-8.24 8.24-1.65 0-3.29-.6-4.69-1.69v7.36c.01 1.13-.89 1.74-1.77 1.74m6.46-27.62c-2.58 0-4.69 2.1-4.69 4.69v7.25c0 2.59 2.1 4.69 4.69 4.69 2.59 0 4.69-2.1 4.69-4.69v-7.24c0-2.59-2.1-4.7-4.69-4.7m169.89 19.98c-.58 0-1.38-.38-1.68-1.46l-3.88-13.83-3.85 13.84c-.31.93-.93 1.46-1.71 1.46-.77 0-1.41-.56-1.67-1.45l-5.16-19.37c-.11-.22-.11-.44-.11-.57 0-1.07.94-1.74 1.82-1.74.78 0 1.41.46 1.67 1.23l3.52 13.7 3.82-13.67c.25-.87.93-1.46 1.67-1.46.75 0 1.39.53 1.7 1.42l3.8 13.71 3.55-13.66c.25-.94 1.01-1.27 1.64-1.27 1.03 0 1.81.75 1.81 1.74 0 .13 0 .31-.06.54l-5.17 19.4c-.26.87-.93 1.44-1.71 1.44m-52.9.2c-4.54 0-8.24-3.69-8.24-8.24v-13.32c0-1.16.89-1.77 1.77-1.77.86 0 1.78.62 1.78 1.77v13.32c0 2.59 2.1 4.69 4.69 4.69 2.58 0 4.69-2.1 4.69-4.69v-13.32c0-1.16.89-1.77 1.78-1.77s1.78.61 1.78 1.77v13.32c-.01 4.54-3.7 8.24-8.25 8.24m-44.66 7.44c-.87 0-1.81-.66-1.81-1.73 0-.21.05-.37.08-.5l.02-.07 2.73-7.38-6.7-18.71c-.06-.22-.11-.44-.11-.63 0-1.07.94-1.74 1.81-1.74.73 0 1.35.43 1.65 1.15l5.3 14.78 5.5-14.76c.26-.72.88-1.17 1.62-1.17.91 0 1.85.65 1.85 1.74 0 .3-.08.51-.18.7l-10.12 27.17c-.28.7-.9 1.15-1.64 1.15m116.42-7.44c-4.54 0-8.23-3.69-8.23-8.24v-7.24c0-4.54 3.69-8.24 8.23-8.24 4.55 0 8.24 3.7 8.24 8.24v7.25c0 4.53-3.69 8.23-8.24 8.23m0-20.18c-2.58 0-4.69 2.1-4.69 4.69v7.25c0 2.59 2.1 4.69 4.69 4.69 2.59 0 4.69-2.1 4.69-4.69v-7.24c0-2.59-2.1-4.7-4.69-4.7m-55.34 19.78c-.88 0-1.77-.61-1.77-1.77v-19.17c0-1.16.89-1.77 1.78-1.77.58 0 1.1.26 1.43.68 1.02-.72 2.21-1.15 3.55-1.25l.1-.02.31-.01h.53c1.17 0 1.77.89 1.77 1.77s-.61 1.77-1.77 1.77h-.25c-2.49 0-3.88 1.74-3.9 4.9v13.11c0 1.16-.89 1.76-1.78 1.76m87.62.4c-.15 0-.45 0-.73-.14-.2-.07-.52-.27-.71-.4-1.98-1.25-3.12-3.66-3.12-6.6v-22.88c0-1.17.9-1.77 1.78-1.77s1.77.61 1.77 1.77v22.88c0 1.39.43 3.19 1.64 3.72.69.32 1.1.94 1.1 1.65 0 .85-.7 1.77-1.73 1.77m-125.78 0c-4.54 0-8.24-3.69-8.24-8.24v-7.24c0-4.54 3.7-8.24 8.24-8.24s8.24 3.7 8.24 8.24v7.25c0 4.53-3.7 8.23-8.24 8.23m0-20.18c-2.58 0-4.69 2.1-4.69 4.69v7.25c0 2.59 2.1 4.69 4.69 4.69 2.58 0 4.69-2.1 4.69-4.69v-7.24c0-2.59-2.11-4.7-4.69-4.7m108.97 19.78c-.88 0-1.77-.61-1.77-1.77v-19.17c0-1.16.89-1.77 1.77-1.77.58 0 1.1.26 1.43.68 1.02-.72 2.21-1.15 3.55-1.25l.1-.02.31-.01h.53c1.17 0 1.77.89 1.77 1.77s-.61 1.77-1.77 1.77h-.25c-2.49 0-3.88 1.74-3.9 4.9v13.11c.01 1.16-.89 1.76-1.77 1.76m-159.1-123.47v1.21h-1.13v5.29h-1.43v-5.29h-1.12v-1.21zm2.8 6.5v-6.5h1.44c.91 0 2.54.09 2.54 1.86 0 .72-.32 1.33-1.03 1.68l1.25 2.96h-1.5l-1.25-3h-.02v3h-1.43zm1.43-3.71l.25.01c.65 0 .91-.4.91-.93 0-.46-.25-.84-.97-.81h-.19v1.73zm8.26-2.79l1.73 6.5h-1.52l-.27-1.09h-1.44l-.26 1.09h-1.42l1.68-6.5h1.5zm-.63 2.65l-.16-.98h-.02l-.15.98-.31 1.73h1.01l-.37-1.73zm4.81 3.85v-6.5h1.08c.25 0 3.24-.33 3.24 3.3 0 1.85-.79 3.2-3.05 3.2h-1.27zm2.89-3.21c0-.83-.29-2.14-1.46-2.14v4.19c1.15.05 1.46-1.24 1.46-2.05m7.02-3.29v1.21h-1.45v1.41h1.28v1.2h-1.28v1.47h1.47v1.21h-2.89v-6.5zm73.61 0l.7 3.83h.02l.57-3.83h1.92l.75 6.5h-1.46l-.35-4.68h-.01l-.23 1.6-.62 3.08h-1.1l-.7-3.12-.24-1.44v-.12h-.02l-.21 4.68h-1.53l.63-6.5zm9.21 0l1.73 6.5h-1.52l-.27-1.09h-1.44l-.26 1.09h-1.42l1.68-6.5h1.5zm-.63 2.65l-.16-.98h-.02l-.15.98-.31 1.73h1.01l-.37-1.73zm4.71 3.85v-6.5h1.44c.91 0 2.54.09 2.54 1.86 0 .72-.32 1.33-1.02 1.68l1.25 2.96h-1.5l-1.25-3h-.02v3h-1.44zm1.43-3.71l.25.01c.65 0 .91-.4.91-.93 0-.46-.25-.84-.97-.81h-.19v1.73zm7.13-2.79v2.9h.02l1.19-2.9h1.45l-1.33 3 1.5 3.5h-1.5l-1.31-3.31h-.02v3.31h-1.43v-6.5zm-15.63-39.65c-.42-1.3-1.62-2.13-2.92-2.14h-29.13l-9.01-27.71c-.41-1.22-1.57-2.11-2.93-2.11-1.37 0-2.53.89-2.93 2.12l-9 27.71h-29.14c-1.29.01-2.5.84-2.92 2.14-.42 1.3.06 2.67 1.11 3.44l23.57 17.13-9 27.71c-.39 1.24.02 2.63 1.13 3.44 1.11.8 2.56.77 3.62.01l23.57-17.13 23.57 17.13c1.05.75 2.51.79 3.62-.01 1.11-.8 1.52-2.2 1.13-3.44l-9-27.71 23.57-17.12c1.03-.79 1.51-2.16 1.09-3.46"/><path clip-path="url(#XMLID_6_)" fill="#ED1C24" d="M116.16 80.57c-.2.15-.48.15-.69 0-.21-.15-.3-.39-.22-.63l9.27-28.55-24.27-17.63c-.2-.14-.29-.4-.21-.65.08-.25.3-.4.55-.4h30l9.27-28.52c.08-.23.29-.4.56-.4.26 0 .48.17.56.41l9.27 28.52h30c.25 0 .48.16.56.4.08.25-.02.5-.21.65l-24.27 17.63 9.27 28.54c.07.24-.01.49-.22.64-.21.15-.49.14-.69 0l-24.26-17.63-24.27 17.62z"/><path clip-path="url(#XMLID_6_)" d="M121.1 52.53l-23.57-17.13c-.41-.3-.73-.7-.95-1.15-.08 1.12.34 2.24 1.23 2.87l22.9 16.63.39-1.22zm38.63 0l23.57-17.12c.41-.3.73-.7.95-1.15.08 1.12-.34 2.24-1.23 2.87l-22.9 16.63-.39-1.23zm-19.31 15.81l23.1 16.78c1.4 1.03 3.37.72 4.4-.68.4-.55.6-1.18.61-1.81-.21.4-.52.76-.91 1.05-1.11.8-2.56.77-3.62.01l-23.58-17.13-23.57 17.13c-1.05.75-2.51.79-3.62-.01-.39-.29-.7-.65-.91-1.05.01.63.21 1.26.61 1.81 1.03 1.4 3 1.71 4.4.68l23.09-16.78z"/><path clip-path="url(#XMLID_6_)" fill="#fff" d="M72.54 134.25c-1.87 1.87-4.29 3.73-6.68 4.49-2.25.72-8.66 1.28-10.55-4.01-.41-1.15-.08-1.5.96-1.81 1.55-.46 5.53-1.63 9.74-3.21 3.82-1.42 7.22-3.17 8.29-3.89 1.91-1.25 2.19-3.02 1.35-4.92-2.68-6.02-8.74-12.33-18.82-10.41-8.01 1.53-13.75 8.74-13.75 16.99 0 10.22 6.16 16.19 13.99 18.04 7.24 1.72 15.76-1.79 19.4-7.69 1.45-2.28-2.62-4.98-3.93-3.58m-18.14-8.04c-.79-2.17-.16-8.8 3.5-10.05 3.84-1.32 6.2.66 7.35 4.53.43 1.44.33 2.95-.13 3.52-.68.83-1.9 1.32-2.99 1.69l-2.87.95c-2.85.97-4.2 1.16-4.86-.64m111.95 8.04c-1.86 1.87-4.29 3.73-6.67 4.49-2.25.72-8.66 1.28-10.55-4.01-.41-1.15-.07-1.5.96-1.81 1.55-.46 5.53-1.63 9.74-3.21 3.82-1.42 7.23-3.17 8.29-3.89 1.91-1.25 2.2-3.02 1.36-4.92-2.68-6.02-8.74-12.33-18.82-10.41-8.01 1.53-13.75 8.74-13.75 16.99 0 10.22 6.15 16.19 13.99 18.04 7.24 1.72 15.75-1.79 19.4-7.69 1.43-2.28-2.63-4.98-3.95-3.58m-18.14-8.04c-.47-1.3-.44-4.19.45-6.57.6-1.6 1.49-2.85 3.05-3.48 1.76-.71 3.26-.51 4.43.17 1.35.77 2.3 2.3 2.92 4.37.43 1.44.33 2.95-.14 3.52-.68.83-1.74 1.24-2.99 1.69-1.24.44-2.35.8-2.87.97-2.85.88-4.19 1.13-4.85-.67m89.66 8.04c-1.86 1.87-4.29 3.73-6.68 4.49-2.25.72-8.66 1.28-10.55-4.01-.41-1.15-.07-1.5.96-1.81 1.55-.46 5.53-1.63 9.74-3.21 3.82-1.42 7.23-3.17 8.29-3.89 1.91-1.25 2.19-3.02 1.36-4.92-2.68-6.02-8.74-12.33-18.82-10.41-8.01 1.53-13.74 8.74-13.74 16.99 0 10.22 6.15 16.19 13.99 18.04 7.24 1.72 15.75-1.79 19.4-7.69 1.43-2.28-2.64-4.98-3.95-3.58m-18.14-8.04c-.47-1.3-.44-4.19.45-6.57.6-1.6 1.49-2.85 3.04-3.48 1.76-.71 3.26-.51 4.43.17 1.35.77 2.3 2.3 2.92 4.37.43 1.44.33 2.95-.14 3.52-.68.83-1.74 1.24-2.99 1.69-1.24.44-2.35.8-2.88.97-2.84.88-4.17 1.13-4.83-.67m-202.79-2.68c-.56 0-1.02.46-1.02 1.02v11.57c.01 1.8.55 3 1.53 3.43.53.24 1.68.77 2.33 1.06.45.21.47.66.4 1.25l-.27 2.56c-.06.6-.53.85-1.43.85h-16.73c-.85 0-1.37-.15-1.45-.85l-.27-2.65c-.07-.66.06-1 .47-1.2.56-.26 1.78-.8 2.31-1.05 1.04-.48 1.48-1.89 1.48-3.37v-28.6c0-1.6-.45-2.89-1.61-3.43-.53-.24-1.63-.74-2.17-1-.45-.21-.56-.62-.48-1.21.08-.52.2-1.41.27-1.96.1-.7.6-.85 1.45-.85h15.97c.85 0 1.34.15 1.43.85.08.55.2 1.44.28 1.96.08.59-.03.99-.46 1.22l-1.88 1.03c-.69.38-1.14 1.16-1.15 3v8.34c0 .56.46 1.02 1.02 1.02h8.94c.56 0 1.02-.45 1.02-1.02v-8.34c-.01-1.84-.46-2.62-1.15-3-.51-.28-1.31-.73-1.88-1.03-.43-.23-.55-.63-.46-1.22.08-.52.2-1.41.28-1.96.1-.7.58-.85 1.43-.85h15.97c.85 0 1.35.15 1.45.85.08.55.2 1.44.27 1.96.09.59-.03 1-.48 1.21-.54.26-1.64.76-2.17 1-1.16.54-1.61 1.83-1.61 3.43v28.61c0 1.48.44 2.89 1.48 3.37.53.25 1.75.79 2.31 1.05.41.19.55.53.47 1.2-.06.52-.21 2.1-.27 2.65-.07.7-.6.85-1.45.85h-16.77c-.9 0-1.37-.25-1.43-.85-.06-.55-.21-2.04-.26-2.56-.06-.58-.05-1.04.4-1.25.65-.3 1.8-.83 2.33-1.06.98-.43 1.52-1.63 1.53-3.43v-11.57c0-.56-.46-1.02-1.02-1.02h-8.95zm179.48-.93s6.06 10.97 7.72 13.98c1.26 2.29 2.67 2.93 4.59 4.02.49.28.64.47.55 1.39-.07.72-.18 1.81-.23 2.38-.08.79-.64.89-1.43.89h-8.94c-1.13 0-1.57-.23-1.98-.96-.43-.78-7.9-14.38-7.9-14.38l-2.82 2.69v3.75c.01 1.72.81 2.83 1.58 3.27l1.87 1.04c.47.26.5.59.44 1.32-.04.52-.19 1.88-.24 2.43-.06.61-.48.85-1.43.85h-14.88c-.85 0-1.38-.15-1.45-.85-.06-.55-.2-2.01-.25-2.53-.07-.65.04-.99.47-1.23.57-.32 1.37-.77 1.88-1.05.73-.4 1.33-1.5 1.33-3.3v-29.06c0-2.01-.77-2.92-1.36-3.25-.42-.24-1.62-.91-1.9-1.06-.42-.24-.5-.69-.42-1.25.08-.52.17-1.19.24-1.74.1-.73.58-.85 1.45-.85h10.75c.92 0 1.94.67 1.94 1.95v22.2s6.03-5.43 6.92-6.23c.64-.57.46-1.18.1-1.35l-1.69-.77c-.43-.19-.65-.42-.57-1.13.07-.67.19-1.75.24-2.27.06-.66.29-.94 1.39-.94h13.14c.82 0 1.1.28 1.16.82l.27 2.51c.05.49-.3.78-1.02 1.04-1.9.7-2.73 1.19-5.29 3.67l-4.23 4m-103.94 13.81c.01 1.72.59 2.78 1.36 3.21l1.87 1.04c.47.26.5.59.44 1.32-.04.52-.19 1.88-.24 2.43-.06.61-.48.85-1.43.85h-14.9c-.85 0-1.37-.15-1.45-.85-.06-.55-.2-2.01-.26-2.53-.07-.65.05-.99.48-1.23.57-.32 1.37-.77 1.88-1.05.73-.4 1.33-1.5 1.33-3.3v-16.28c0-2.19-.65-3.21-1.35-3.61-.42-.23-1.01-.57-1.29-.73-.44-.25-.51-.67-.43-1.23.08-.52.19-1.39.27-1.94.1-.7.6-.85 1.45-.85h11.28c.55 0 1 .45 1 1l-.01 23.75zm-6.34-38.25c-3.3 0-5.97 2.58-5.97 5.76 0 3.18 2.67 5.76 5.97 5.76s5.97-2.58 5.97-5.76c.01-3.18-2.67-5.76-5.97-5.76m45.15 21.87c0-5.98-2.71-8.26-5.85-9.26-3.62-1.15-7.99.74-10.24 1.78-.91.42-1.76.86-1.76.86-.58-1.36-.89-1.75-1.75-1.75h-10.61c-.85 0-1.35.15-1.45.85-.08.55-.19 1.42-.27 1.94-.08.56-.01.98.43 1.23.28.16.87.5 1.29.73.71.4 1.35 1.42 1.35 3.61v16.29c0 1.8-.6 2.89-1.33 3.3-.51.28-1.31.73-1.88 1.05-.43.24-.55.58-.47 1.23.06.52.21 1.98.26 2.53.07.7.6.85 1.45.85h14.88c.95 0 1.37-.24 1.43-.85.06-.55.2-1.91.24-2.43.06-.73.03-1.06-.44-1.32-.61-.33-1.37-.75-1.87-1.04-.96-.55-1.36-1.97-1.36-3.25l.01-12.94c0-3.38 1.65-5.28 3.91-5.56 1.5-.19 3.43.74 3.43 3.4v17.44c0 4.97 4.22 6.87 7.53 6.87 3.51 0 6.5-1.61 7.84-4.41.42-.89-.09-1.56-.53-2.04-.5-.55-.94-1.04-1.75-.62-.8.41-1.64 1.2-2.12.94-.36-.2-.39-.51-.39-1.29v-18.14zm144.5 0c0-5.98-2.71-8.26-5.85-9.26-3.62-1.15-7.99.74-10.24 1.78-.91.42-1.76.86-1.76.86-.58-1.36-.89-1.75-1.75-1.75h-10.61c-.85 0-1.35.15-1.45.85-.08.55-.19 1.42-.27 1.94-.08.56-.01.98.43 1.23.28.16.87.5 1.29.73.71.4 1.35 1.42 1.35 3.61v16.29c0 1.8-.59 2.89-1.33 3.3-.51.28-1.31.73-1.88 1.05-.43.24-.55.58-.47 1.23.06.52.2 1.98.26 2.53.07.7.6.85 1.45.85h14.88c.96 0 1.37-.24 1.43-.85.06-.55.2-1.91.25-2.43.06-.73.03-1.06-.44-1.32-.61-.33-1.37-.75-1.87-1.04-.96-.55-1.36-1.97-1.36-3.25l.01-12.94c0-3.38 1.65-5.28 3.91-5.56 1.51-.19 3.44.74 3.44 3.4v17.44c0 4.97 4.22 6.87 7.53 6.87 3.51 0 6.5-1.61 7.84-4.41.42-.89-.1-1.56-.53-2.04-.5-.55-.94-1.04-1.75-.62-.8.41-1.64 1.2-2.12.94-.36-.2-.39-.51-.39-1.29v-18.14zm7.67-18.44c0 3.64-2.95 6.58-6.58 6.58-3.64 0-6.6-2.94-6.6-6.58 0-3.65 2.96-6.59 6.6-6.58 3.63-.01 6.58 2.93 6.58 6.58m-1.33 0c0-2.91-2.35-5.25-5.24-5.25-2.91 0-5.27 2.34-5.27 5.25 0 2.9 2.36 5.25 5.27 5.25 2.89 0 5.24-2.35 5.24-5.25m-2.51 1.57c.11.77.46 1.33.65 1.73h-1.77c-.34-.76-.41-1.26-.58-1.79-.23-.76-.7-.98-1.53-.98h-.61v2.77h-1.63v-7.09h3.39c.79 0 2.16.47 2.16 1.98 0 .95-.53 1.6-1.06 1.8.6.38.86.82.98 1.58m-1.58-3.3c0-.57-.6-.77-1.1-.77h-1.14v1.63h1.3c.56 0 .94-.37.94-.86"/></svg>