<svg xmlns="http://www.w3.org/2000/svg" xmlns:xlink="http://www.w3.org/1999/xlink" preserveAspectRatio="xMidYMid" width="12.53" height="19.657" viewBox="0 0 12.53 19.657">
  <defs>
    <style>
      .cls-1 {
        fill: #929292;
        fill-rule: evenodd;
      }
    </style>
  </defs>
  <path d="M7.053,16.060 L7.053,18.077 L8.231,18.077 C8.664,18.077 9.016,18.429 9.016,18.862 C9.016,19.295 8.664,19.647 8.231,19.647 L4.306,19.647 C3.873,19.647 3.521,19.295 3.521,18.862 C3.521,18.429 3.873,18.077 4.306,18.077 L5.483,18.077 L5.483,16.060 C2.391,15.672 -0.011,13.031 -0.011,9.836 C-0.011,9.402 0.341,9.050 0.774,9.050 C1.207,9.050 1.559,9.402 1.559,9.836 C1.559,12.432 3.672,14.545 6.268,14.545 C8.865,14.545 10.978,12.432 10.978,9.836 C10.978,9.402 11.330,9.050 11.763,9.050 C12.196,9.050 12.548,9.402 12.548,9.836 C12.548,13.031 10.146,15.672 7.053,16.060 ZM9.192,11.815 C9.135,11.898 9.075,11.978 9.011,12.057 C8.993,12.079 8.974,12.100 8.955,12.122 C8.783,12.323 8.590,12.505 8.374,12.664 C8.306,12.716 8.236,12.765 8.163,12.811 C8.144,12.824 8.126,12.839 8.106,12.851 C8.094,12.858 8.082,12.862 8.069,12.868 C7.541,13.183 6.927,13.368 6.268,13.368 C4.321,13.368 2.736,11.783 2.736,9.835 L2.736,3.556 C2.736,2.845 2.961,2.161 3.349,1.585 C3.353,1.578 3.357,1.572 3.362,1.565 C3.419,1.482 3.479,1.402 3.543,1.323 C3.561,1.301 3.580,1.280 3.598,1.258 C3.770,1.057 3.964,0.875 4.179,0.716 C4.248,0.665 4.318,0.615 4.390,0.569 C4.410,0.556 4.427,0.541 4.447,0.529 C4.459,0.522 4.472,0.518 4.484,0.512 C5.012,0.197 5.627,0.013 6.285,0.013 C8.233,0.013 9.817,1.597 9.817,3.545 L9.817,9.824 C9.817,10.535 9.593,11.219 9.204,11.796 C9.200,11.802 9.196,11.809 9.192,11.815 ZM8.247,3.545 C8.247,2.463 7.367,1.582 6.285,1.582 C5.895,1.582 5.533,1.698 5.227,1.895 C5.193,1.916 5.162,1.939 5.130,1.962 C4.642,2.319 4.323,2.895 4.323,3.545 C4.323,3.600 4.317,3.654 4.306,3.706 L4.306,9.835 C4.306,10.918 5.186,11.798 6.268,11.798 C6.658,11.798 7.021,11.682 7.327,11.486 C7.360,11.464 7.392,11.441 7.424,11.418 C7.912,11.061 8.231,10.485 8.231,9.835 C8.231,9.781 8.237,9.727 8.247,9.675 L8.247,3.545 Z" class="cls-1"/>
  <image src="/dummy-resources/img/room/icon-microphone.png" xlink:href="">
</svg>