<svg xmlns="http://www.w3.org/2000/svg" xmlns:xlink="http://www.w3.org/1999/xlink" preserveAspectRatio="xMidYMid" width="11.06" height="19.875" viewBox="0 0 11.06 19.875">
  <defs>
    <style>
      .cls-1 {
        fill: #929292;
        fill-rule: evenodd;
      }
    </style>
  </defs>
  <path d="M10.569,19.855 C10.496,19.878 10.421,19.890 10.349,19.890 C10.046,19.890 9.764,19.696 9.666,19.392 C8.788,16.663 8.386,15.362 8.199,14.715 C8.121,14.721 8.047,14.738 7.967,14.738 L6.260,14.738 L6.260,17.948 C6.260,18.344 5.939,18.665 5.543,18.665 C5.147,18.665 4.825,18.344 4.825,17.948 L4.825,14.738 L3.118,14.738 C3.034,14.738 2.954,14.721 2.872,14.713 C2.685,15.360 2.283,16.661 1.405,19.392 C1.307,19.696 1.025,19.890 0.722,19.890 C0.649,19.890 0.575,19.878 0.502,19.855 C0.125,19.734 -0.083,19.330 0.039,18.952 C0.641,17.080 1.294,15.008 1.523,14.220 C0.826,13.720 0.368,12.908 0.368,11.987 L0.368,2.763 C0.368,1.246 1.602,0.012 3.118,0.012 L7.967,0.012 C9.484,0.012 10.718,1.246 10.718,2.763 L10.718,11.987 C10.718,12.914 10.254,13.731 9.550,14.230 C9.781,15.025 10.432,17.087 11.032,18.952 C11.153,19.330 10.946,19.734 10.569,19.855 ZM9.283,2.763 C9.283,2.037 8.693,1.447 7.967,1.447 L3.118,1.447 C2.392,1.447 1.802,2.037 1.802,2.763 L1.802,11.987 C1.802,12.713 2.392,13.303 3.118,13.303 L7.967,13.303 C8.693,13.303 9.283,12.713 9.283,11.987 L9.283,2.763 Z" class="cls-1"/>
  <image src="/dummy-resources/img/room/icon-flip-charts.png" xlink:href="">
</svg>