<svg xmlns="http://www.w3.org/2000/svg" xmlns:xlink="http://www.w3.org/1999/xlink" preserveAspectRatio="xMidYMid" width="11.56" height="18.97" viewBox="0 0 11.56 18.97">
  <defs>
    <style>
      .cls-1 {
        fill: #929292;
        fill-rule: evenodd;
      }
    </style>
  </defs>
  <path d="M11.541,2.703 L9.877,16.434 C9.709,17.827 8.430,18.960 7.027,18.960 L6.555,18.960 L4.971,18.960 L4.499,18.960 C3.096,18.960 1.818,17.827 1.649,16.434 L-0.015,2.703 C-0.101,1.994 0.102,1.321 0.557,0.808 C1.012,0.295 1.655,0.013 2.369,0.013 L4.971,0.013 L6.555,0.013 L9.157,0.013 C9.871,0.013 10.515,0.295 10.969,0.808 C11.424,1.321 11.627,1.994 11.541,2.703 ZM3.006,16.269 C3.093,16.986 3.777,17.592 4.499,17.592 L4.971,17.592 L6.555,17.592 L7.027,17.592 C7.749,17.592 8.433,16.986 8.520,16.269 L9.834,5.425 L1.693,5.425 L3.006,16.269 ZM9.946,1.715 C9.754,1.499 9.474,1.380 9.157,1.380 L6.555,1.380 L4.971,1.380 L2.369,1.380 C2.052,1.380 1.772,1.499 1.580,1.715 C1.389,1.931 1.305,2.224 1.343,2.538 L1.527,4.058 L9.999,4.058 L10.183,2.538 C10.221,2.224 10.137,1.931 9.946,1.715 Z" class="cls-1"/>
  <image src="/dummy-resources/img/room/icon-bar.png" xlink:href="">
</svg>