<svg xmlns="http://www.w3.org/2000/svg" xmlns:xlink="http://www.w3.org/1999/xlink" preserveAspectRatio="xMidYMid" width="20.57" height="14.969" viewBox="0 0 20.57 14.969">
  <defs>
    <style>
      .cls-1 {
        fill: #929292;
        fill-rule: evenodd;
      }
    </style>
  </defs>
  <path d="M16.538,14.335 C16.295,14.700 15.901,14.956 15.429,14.956 C14.971,14.956 14.586,14.714 14.341,14.365 L6.465,14.365 C6.220,14.714 5.834,14.956 5.376,14.956 C4.917,14.956 4.530,14.712 4.285,14.361 C1.916,14.338 -0.005,12.407 -0.005,10.033 L-0.005,4.346 C-0.005,1.957 1.938,0.014 4.327,0.014 L16.242,0.014 C18.631,0.014 20.574,1.957 20.574,4.346 L20.574,10.033 C20.574,12.320 18.787,14.180 16.538,14.335 ZM19.491,4.346 C19.491,2.559 18.029,1.097 16.242,1.097 L4.327,1.097 C2.540,1.097 1.078,2.559 1.078,4.346 L1.078,10.033 C1.078,11.820 2.540,13.282 4.327,13.282 L16.242,13.282 C18.029,13.282 19.491,11.820 19.491,10.033 L19.491,4.346 ZM13.388,11.658 C10.924,11.658 8.920,9.653 8.920,7.189 C8.920,4.726 10.924,2.721 13.388,2.721 C15.852,2.721 17.856,4.726 17.856,7.189 C17.856,9.653 15.852,11.658 13.388,11.658 ZM13.388,3.932 C11.589,3.932 10.131,5.391 10.131,7.189 C10.131,8.988 11.589,10.447 13.388,10.447 C15.187,10.447 16.645,8.988 16.645,7.189 C16.645,5.391 15.187,3.932 13.388,3.932 ZM6.561,10.574 L3.583,10.574 C3.285,10.574 3.041,10.331 3.041,10.033 C3.041,9.735 3.285,9.491 3.583,9.491 L6.561,9.491 C6.859,9.491 7.103,9.735 7.103,10.033 C7.103,10.331 6.859,10.574 6.561,10.574 ZM6.561,8.696 L3.583,8.696 C3.285,8.696 3.041,8.452 3.041,8.154 C3.041,7.856 3.285,7.612 3.583,7.612 L6.561,7.612 C6.859,7.612 7.103,7.856 7.103,8.154 C7.103,8.452 6.859,8.696 6.561,8.696 ZM6.561,6.767 L3.583,6.767 C3.285,6.767 3.041,6.523 3.041,6.225 C3.041,5.927 3.285,5.683 3.583,5.683 L6.561,5.683 C6.859,5.683 7.103,5.927 7.103,6.225 C7.103,6.522 6.859,6.767 6.561,6.767 ZM6.561,4.888 L3.583,4.888 C3.285,4.888 3.041,4.644 3.041,4.346 C3.041,4.048 3.285,3.804 3.583,3.804 L6.561,3.804 C6.859,3.804 7.103,4.048 7.103,4.346 C7.103,4.644 6.859,4.888 6.561,4.888 Z" class="cls-1"/>
  <image src="/dummy-resources/img/room/icon-beamer-screen.png" xlink:href="">
</svg>