<svg xmlns="http://www.w3.org/2000/svg" viewBox="0 0 42.5 68" width="42" height="68" preserveAspectRatio="xMidYMid"><path fill="#fff" d="M15.3 41.3h-.1v-.1l1.5-4.5-3.8-2.8v-.1s0-.1.1-.1h4.7l1.5-4.5s0-.1.1-.1c0 0 .1 0 .1.1l1.5 4.5h4.7s.1 0 .1.1v.1l-3.8 2.8 1.5 4.5v.1h-.1l-3.8-2.8-4.2 2.8z"/><path fill="#fff" class="st0" d="M42.3 15.7c-1.1-2.8-4.2-2.9-4.4-2.9h-1.6v-.2c0-2.8-2.6-5.1-5.8-5.1h-22.5c-3.2 0-5.8 2.3-5.8 5.1v6.4c-1.3 1.3-2.2 3.1-2.2 5.1v37c0 3.8 3.1 6.9 6.9 6.9h24.4c3.8 0 6.9-3.1 6.9-6.9v-37c0-1.9-.7-3.6-1.9-4.8v-3.5h1.6s1 0 1.6 1.2l.2.4 2.8-1.2-.2-.5zm-18.1-6c0 2.7-2.2 4.9-4.9 4.9s-4.9-2.2-4.9-4.9h9.8zm-17.3 9.4h24.4c2.7 0 4.9 2.2 4.9 4.9v.9h-34.2v-.9c0-2.7 2.2-4.9 4.9-4.9zm29.4 7.1v30.1h-34.3v-30.1h34.3zm-1.4 38.2h-31.6c-.8-.9-1.3-2-1.3-3.4v-3.5h34.3v3.5c0 1.4-.6 2.5-1.4 3.4zm5.2-48.3c-.9-1.3-2.2-1.3-2.3-1.3h-1.6v-.9h1.6c.1 0 2.3 0 3.3 1.8l-1 .4zM21.9 2.9c0-1.2-.8-2.5-2.1-2.8-1.8-.4-3.4 1.1-3.4 2.7l.4 2.8h4.7s.4-1.5.4-2.7z"/></svg>