<svg xmlns="http://www.w3.org/2000/svg" viewBox="0 0 27.2 60.7" width="28" height="62" preserveAspectRatio="xMidYMid"><path fill-rule="evenodd" clip-rule="evenodd" fill="#fff" d="M11.668 52.399l1.131 1.131-1.131 1.131-1.131-1.131zM16.083 52.364l1.131 1.131-1.131 1.131-1.131-1.131zM13.93 50.191l.707.707-.707.707-.707-.707z"/><path fill="#fff" d="M27.2 43.3h-3.1l2.2-2.2-1.1-1-2.1 2.1v-3h-1.5v3l-2.2-2.1-1 1 2.1 2.2h-3v1.5h3l-2.1 2.1 1 1 2.2-2.1v3h1.5v-3l2.1 2.1 1.1-1-2.2-2.1h3.1zM25.1 3.6c-.3-2.7-6.2-3.6-11.2-3.6-4.3 0-11.4.8-11.7 3.6 0 .1-.4 9.4.5 18.4.9 8.5 2.1 17.1 2.2 18v17c0 .9.3 1.7.8 2.3v.1h.1c.7.8 1.6 1.3 2.7 1.3h10.6c2 0 3.6-1.6 3.6-3.6v-4.7h-2v4h-.2l-2.1-2.1-2.3 2.3-2.3-2.3-2.3 2.3-2.3-2.3-2.2 2.2h-.2v-16.600000000000005c0-.1-1.3-9-2.2-17.9-.3-3-.5-6.1-.5-8.8h8l1.4-3.4h.2l1.3 3.2h7.9c-.1 2.8-.2 5.8-.4 8.9-.3 5-.8 10.1-1.2 13.5l2 .2c.4-3.4.9-8.5 1.2-13.6.6-8.9.6-18.3.6-18.4zm-10.6 10.6h3v.1l-2.4 1.7.9 2.8v.1h-.1l-2.3-1.7-2.4 1.7h-.1v-.1l.9-2.8-2.3-1.7v-.1h3"/></svg>