<svg xmlns="http://www.w3.org/2000/svg" viewBox="0 0 22.3 42.5" xml:space="preserve" width="23" height="43" preserveAspectRatio="xMidYMid">
	<path fill="#fff" d="M8.8 22.5C8.8 22.5 8.7 22.5 8.8 22.5 8.7 22.5 8.7 22.4 8.8 22.5l0.8-2.8 -2.3-1.7c0 0 0 0 0-0.1 0 0 0 0 0.1 0l2.9 0 0.9-2.8c0 0 0 0 0.1 0 0 0 0 0 0.1 0l0.9 2.8 2.9 0c0 0 0 0 0.1 0 0 0 0 0 0 0.1l-2.3 1.7 0.9 2.8c0 0 0 0 0 0.1 0 0 0 0-0.1 0l-2.3-1.7L8.8 22.5zM22.2 9l-0.2-0.4 -0.2-0.1c-1-0.9-1.7-2-1.9-3.3l-0.2-0.8 -7.8 0c-0.1-0.2-0.2-0.4-0.3-0.6l-1.3-2.2C9.6 0.3 8.1-0.3 6.8 0.1c-0.9 0.3-1.6 1-2 1.9C4.5 2.8 4.6 3.7 4.9 4.4l-2.5 0L2.3 5.2c-0.3 1.3-1 2.5-2 3.3L0.2 8.7 0 9.1v28.8l0.4 1L0.6 39c0.8 0.8 1.4 1.7 1.6 2.8l0.2 0.7 17.5 0 0.2-0.7c0.3-1 0.8-2 1.6-2.7l0.1-0.1 0.5-1V9.3L22.2 9zM6.7 2.7C6.7 2.5 6.9 2.2 7.4 2c0.4-0.1 1 0.1 1.3 0.6l1.1 1.8H7.2L6.8 3.6C6.6 3.4 6.6 3 6.7 2.7zM20.3 37.5l-0.1 0.3c-0.5 0.5-0.9 1-1.2 1.6H3.4c-0.3-0.6-0.8-1.2-1.3-1.7L2 37.5v-1.5h18.3V37.5zM20.3 34.7H2V13h18.3V34.7zM20.3 11.8H2V9.8c1-0.9 1.7-2.1 2.1-3.3l14.2 0c0.4 1.2 1.1 2.4 2 3.3V11.8z"></path>
</svg>