<svg xmlns="http://www.w3.org/2000/svg" viewBox="0 0 19.1 61.6" xml:space="preserve" width="19" height="61" preserveAspectRatio="xMidYMid">
	<path fill="#fff" d="M16.7 23.6l-2-17 0-0.4c0.1-0.3 0.1-0.5 0.1-0.8V2.8c0-1.6-1.3-2.8-2.8-2.8H7.5C5.9 0 4.6 1.3 4.6 2.8v2.6c0 0.2 0 0.5 0.1 0.7l0 0.4 -2.2 17C1 24.6 0 26.3 0 28.3v28.4c0 2.7 2.2 4.9 4.9 4.9h9.3c2.7 0 4.9-2.2 4.9-4.9V28.3C19.1 26.4 18.2 24.7 16.7 23.6zM17.1 56.7c0 1.6-1.3 2.9-2.9 2.9H4.9c-1.6 0-2.9-1.3-2.9-2.9V28.3c0-1.3 0.7-2.6 2-3.3l0.4-0.2 2.4-18 0-0.2 0-0.6 0-0.2c0-0.1 0-0.2 0-0.3v-2h6.1v2c0 0.1 0 0.2 0 0.4l-0.1 0.8 2.2 18.2 0.4 0.3c1.2 0.7 1.9 1.9 1.9 3.2V56.7zM7.2 39.1C7.2 39.1 7.2 39.1 7.2 39.1 7.1 39.1 7.1 39.1 7.2 39.1L8 36.3l-2.3-1.7c0 0 0 0 0-0.1 0 0 0 0 0.1 0l2.9 0 0.9-2.8c0 0 0 0 0.1 0 0 0 0 0 0.1 0l0.9 2.8 2.9 0c0 0 0 0 0.1 0 0 0 0 0 0 0.1l-2.3 1.7L12 39c0 0 0 0 0 0.1 0 0 0 0-0.1 0l-2.3-1.7L7.2 39.1z"></path>
</svg>