<svg xmlns="http://www.w3.org/2000/svg" viewBox="0 0 23 60.7" xml:space="preserve" width="23" height="61" preserveAspectRatio="xMidYMid">
	<path fill="#fff" d="M12.5 14.2l2.9 0c0 0 0 0 0.1 0 0 0 0 0 0 0.1L13 16l0.9 2.8c0 0 0 0 0 0.1 0 0 0 0-0.1 0l-2.3-1.7 -2.4 1.7c0 0 0 0-0.1 0 0 0 0 0 0-0.1L10 16l-2.3-1.7c0 0 0 0 0-0.1 0 0 0 0 0.1 0l2.9 0M22.5 22C23.1 13.1 23 3.7 23 3.6h0C22.8 0.9 16.8 0 11.8 0 7.5 0 0.4 0.8 0.1 3.6h0C0.1 3.7-0.3 13 0.6 22c0.9 8.5 2.1 17.1 2.2 18 0 0.1 0 0.2 0 0.3 0 0.1 0 0.2 0 0.3V57c0 2 1.6 3.6 3.6 3.6h10.6c2 0 3.6-1.6 3.6-3.6V40.7c0-0.1 0-0.2 0-0.3 0-0.1 0-0.2 0-0.3C20.8 39.2 22 30.5 22.5 22zM20.5 21.9c-0.5 8.8-1.8 17.8-1.8 17.9l0 0.1c0 0.1 0 0.2 0 0.3l0 0.1 0 0.1c0 0.1 0 0.1 0 0.2v16.1H4.8V40.7c0-0.1 0-0.1 0-0.2l0-0.1 0-0.1c0-0.1 0-0.2 0-0.3l0-0.1c0-0.1-1.3-9-2.2-17.9 -0.3-3-0.5-6.1-0.5-8.8l8 0 1.4-3.4c0 0 0 0 0.1 0 0 0 0 0 0.1 0l1.4 3.4 7.9 0C20.8 15.8 20.7 18.8 20.5 21.9z"></path>
</svg>